HIERARCHY
ROOT Hips
{
	OFFSET 0.000000 83.208069 2.550922
	CHANNELS 6 Xposition Yposition Zposition Xrotation Yrotation Zrotation
	JOINT Pelvis
	{
		OFFSET 0.000000 0.000000 0.000000
		CHANNELS 3 Xrotation Yrotation Zrotation
		JOINT LeftUpLeg
		{
			OFFSET 8.479694 -4.795517 -0.379053
			CHANNELS 3 Xrotation Yrotation Zrotation
			JOINT LeftLeg
			{
				OFFSET 0.485052 -32.551468 0.112863
				CHANNELS 3 Xrotation Yrotation Zrotation
				JOINT LeftFoot
				{
					OFFSET 0.438033 -32.635670 -3.012641
					CHANNELS 3 Xrotation Yrotation Zrotation
					JOINT LeftToeBase
					{
						OFFSET 0.970169 -13.225353 11.864223
						CHANNELS 3 Xrotation Yrotation Zrotation
						End Site
						{
							OFFSET 0.000000 12.319231 0.000000
						}
					}
					JOINT LFootTongue
					{
						OFFSET 1.142399 -1.059789 6.665162
						CHANNELS 3 Xrotation Yrotation Zrotation
						End Site
						{
							OFFSET 0.000000 12.319230 0.000000
						}
					}
				}
				JOINT LeftPantLeg
				{
					OFFSET 1.152549 -16.519323 -2.284731
					CHANNELS 3 Xrotation Yrotation Zrotation
					End Site
					{
						OFFSET 0.000000 24.746851 0.000000
					}
				}
			}
		}
		JOINT RightUpLeg
		{
			OFFSET -8.479694 -4.795517 -0.379053
			CHANNELS 3 Xrotation Yrotation Zrotation
			JOINT RightLeg
			{
				OFFSET -0.484100 -32.551483 0.112903
				CHANNELS 3 Xrotation Yrotation Zrotation
				JOINT RightFoot
				{
					OFFSET -0.438985 -32.635651 -3.012681
					CHANNELS 3 Xrotation Yrotation Zrotation
					JOINT RightToeBase
					{
						OFFSET -0.970169 -13.225354 11.864223
						CHANNELS 3 Xrotation Yrotation Zrotation
						End Site
						{
							OFFSET 0.000000 12.319217 0.000000
						}
					}
					JOINT RFootTongue
					{
						OFFSET -1.142220 -1.059793 6.665161
						CHANNELS 3 Xrotation Yrotation Zrotation
						End Site
						{
							OFFSET 0.000000 12.319217 0.000000
						}
					}
				}
				JOINT RightPantLeg
				{
					OFFSET -1.153501 -16.519308 -2.284772
					CHANNELS 3 Xrotation Yrotation Zrotation
					End Site
					{
						OFFSET 0.000000 24.746878 0.000000
					}
				}
			}
		}
	}
	JOINT Spine
	{
		OFFSET 0.000000 7.722015 1.166203
		CHANNELS 3 Xrotation Yrotation Zrotation
		JOINT Spine1
		{
			OFFSET 0.000000 12.024086 0.248766
			CHANNELS 3 Xrotation Yrotation Zrotation
			JOINT Spine2
			{
				OFFSET -0.000000 11.503036 -0.491240
				CHANNELS 3 Xrotation Yrotation Zrotation
				JOINT Neck
				{
					OFFSET 0.000000 18.430687 -3.123054
					CHANNELS 3 Xrotation Yrotation Zrotation
					JOINT Head
					{
						OFFSET -0.000000 9.051071 1.034021
						CHANNELS 3 Xrotation Yrotation Zrotation
						JOINT HairB
						{
							OFFSET 0.208397 24.786072 24.822304
							CHANNELS 3 Xrotation Yrotation Zrotation
							End Site
							{
								OFFSET 0.000000 32.263794 0.000000
							}
						}
						JOINT HairA
						{
							OFFSET -7.081073 24.428299 23.196634
							CHANNELS 3 Xrotation Yrotation Zrotation
							End Site
							{
								OFFSET 0.000000 32.263779 0.000000
							}
						}
						JOINT Hat
						{
							OFFSET 16.728800 15.048309 -15.439650
							CHANNELS 3 Xrotation Yrotation Zrotation
							End Site
							{
								OFFSET 0.000000 32.263794 0.000000
							}
						}
					}
				}
				JOINT LeftShoulder
				{
					OFFSET 6.197824 13.665230 -4.064723
					CHANNELS 3 Xrotation Yrotation Zrotation
					JOINT LeftArm
					{
						OFFSET 7.778132 -0.187073 -1.709282
						CHANNELS 3 Xrotation Yrotation Zrotation
						JOINT LeftForeArm
						{
							OFFSET 21.954697 0.000000 -2.041093
							CHANNELS 3 Xrotation Yrotation Zrotation
							JOINT LeftHand
							{
								OFFSET 22.992908 0.000000 -0.870901
								CHANNELS 3 Xrotation Yrotation Zrotation
								JOINT LeftHandThumb1
								{
									OFFSET 3.593975 -1.460358 3.365570
									CHANNELS 3 Xrotation Yrotation Zrotation
									JOINT LeftHandThumb2
									{
										OFFSET 3.016712 -1.561966 2.119022
										CHANNELS 3 Xrotation Yrotation Zrotation
										JOINT LeftHandThumb3
										{
											OFFSET 3.029564 -2.099800 1.415844
											CHANNELS 3 Xrotation Yrotation Zrotation
											End Site
											{
												OFFSET 0.000000 3.948677 0.000000
											}
										}
									}
								}
								JOINT LeftHandIndex1
								{
									OFFSET 11.372505 0.065018 3.699154
									CHANNELS 3 Xrotation Yrotation Zrotation
									JOINT LeftHandIndex2
									{
										OFFSET 3.229195 -0.574921 -0.143498
										CHANNELS 3 Xrotation Yrotation Zrotation
										JOINT LeftHandIndex3
										{
											OFFSET 3.111160 -1.135635 -0.280794
											CHANNELS 3 Xrotation Yrotation Zrotation
											End Site
											{
												OFFSET 0.000000 3.323822 0.000000
											}
										}
									}
								}
								JOINT LeftHandMiddle1
								{
									OFFSET 11.327377 0.426697 -0.098180
									CHANNELS 3 Xrotation Yrotation Zrotation
									JOINT LeftHandMiddle2
									{
										OFFSET 3.290932 -0.875465 -0.186927
										CHANNELS 3 Xrotation Yrotation Zrotation
										JOINT LeftHandMiddle3
										{
											OFFSET 3.094551 -1.150223 -0.267588
											CHANNELS 3 Xrotation Yrotation Zrotation
											End Site
											{
												OFFSET 0.000000 3.312233 0.000000
											}
										}
									}
								}
								JOINT LeftHandRing1
								{
									OFFSET 11.497078 -0.008904 -3.070051
									CHANNELS 3 Xrotation Yrotation Zrotation
									JOINT LeftHandRing2
									{
										OFFSET 2.881340 -0.992859 -0.186928
										CHANNELS 3 Xrotation Yrotation Zrotation
										JOINT LeftHandRing3
										{
											OFFSET 3.022743 -1.281013 -0.290960
											CHANNELS 3 Xrotation Yrotation Zrotation
											End Site
											{
												OFFSET 0.000000 3.295853 0.000000
											}
										}
									}
								}
								JOINT LeftHandPinky1
								{
									OFFSET 10.529488 -1.373093 -5.625615
									CHANNELS 3 Xrotation Yrotation Zrotation
									JOINT LeftHandPinky2
									{
										OFFSET 2.679024 -0.950073 -0.330554
										CHANNELS 3 Xrotation Yrotation Zrotation
										JOINT LeftHandPinky3
										{
											OFFSET 2.724571 -0.843613 -0.252685
											CHANNELS 3 Xrotation Yrotation Zrotation
											End Site
											{
												OFFSET 0.000000 2.863358 0.000000
											}
										}
									}
								}
							}
							JOINT LSleeve
							{
								OFFSET 6.633202 -0.344879 -1.263650
								CHANNELS 3 Xrotation Yrotation Zrotation
								End Site
								{
									OFFSET 0.000000 14.885345 0.000000
								}
							}
						}
					}
				}
				JOINT RightShoulder
				{
					OFFSET -6.197824 13.665230 -4.064723
					CHANNELS 3 Xrotation Yrotation Zrotation
					JOINT RightArm
					{
						OFFSET -7.778132 -0.187073 -1.709282
						CHANNELS 3 Xrotation Yrotation Zrotation
						JOINT RightForeArm
						{
							OFFSET -21.954697 0.000000 -2.041093
							CHANNELS 3 Xrotation Yrotation Zrotation
							JOINT RightHand
							{
								OFFSET -22.992908 0.000000 -0.870901
								CHANNELS 3 Xrotation Yrotation Zrotation
								JOINT RightHandThumb1
								{
									OFFSET -3.593975 -1.460358 3.365570
									CHANNELS 3 Xrotation Yrotation Zrotation
									JOINT RightHandThumb2
									{
										OFFSET -3.016712 -1.561966 2.119022
										CHANNELS 3 Xrotation Yrotation Zrotation
										JOINT RightHandThumb3
										{
											OFFSET -3.029564 -2.099800 1.415844
											CHANNELS 3 Xrotation Yrotation Zrotation
											End Site
											{
												OFFSET 0.000000 3.948677 0.000000
											}
										}
									}
								}
								JOINT RightHandIndex1
								{
									OFFSET -11.372513 0.065018 3.699154
									CHANNELS 3 Xrotation Yrotation Zrotation
									JOINT RightHandIndex2
									{
										OFFSET -3.229187 -0.574921 -0.143498
										CHANNELS 3 Xrotation Yrotation Zrotation
										JOINT RightHandIndex3
										{
											OFFSET -3.111160 -1.135635 -0.280794
											CHANNELS 3 Xrotation Yrotation Zrotation
											End Site
											{
												OFFSET 0.000000 3.323822 0.000000
											}
										}
									}
								}
								JOINT RightHandMiddle1
								{
									OFFSET -11.327377 0.426697 -0.098180
									CHANNELS 3 Xrotation Yrotation Zrotation
									JOINT RightHandMiddle2
									{
										OFFSET -3.290932 -0.875465 -0.186927
										CHANNELS 3 Xrotation Yrotation Zrotation
										JOINT RightHandMiddle3
										{
											OFFSET -3.094551 -1.150223 -0.267588
											CHANNELS 3 Xrotation Yrotation Zrotation
											End Site
											{
												OFFSET 0.000000 3.312233 0.000000
											}
										}
									}
								}
								JOINT RightHandRing1
								{
									OFFSET -11.497078 -0.008904 -3.070051
									CHANNELS 3 Xrotation Yrotation Zrotation
									JOINT RightHandRing2
									{
										OFFSET -2.881340 -0.992859 -0.186928
										CHANNELS 3 Xrotation Yrotation Zrotation
										JOINT RightHandRing3
										{
											OFFSET -3.022743 -1.281013 -0.290960
											CHANNELS 3 Xrotation Yrotation Zrotation
											End Site
											{
												OFFSET 0.000000 3.295853 0.000000
											}
										}
									}
								}
								JOINT RightHandPinky1
								{
									OFFSET -10.529488 -1.373093 -5.625615
									CHANNELS 3 Xrotation Yrotation Zrotation
									JOINT RightHandPinky2
									{
										OFFSET -2.679024 -0.950073 -0.330554
										CHANNELS 3 Xrotation Yrotation Zrotation
										JOINT RightHandPinky3
										{
											OFFSET -2.724571 -0.843613 -0.252685
											CHANNELS 3 Xrotation Yrotation Zrotation
											End Site
											{
												OFFSET 0.000000 2.863358 0.000000
											}
										}
									}
								}
							}
							JOINT RSleeve
							{
								OFFSET -6.633202 -0.344879 -1.263650
								CHANNELS 3 Xrotation Yrotation Zrotation
								End Site
								{
									OFFSET 0.000000 14.885345 0.000000
								}
							}
						}
					}
				}
				JOINT Backpack
				{
					OFFSET -0.000000 -2.471489 36.677479
					CHANNELS 3 Xrotation Yrotation Zrotation
					End Site
					{
						OFFSET 0.000000 20.427322 0.000000
					}
				}
				JOINT Hood
				{
					OFFSET -0.000000 18.754143 -10.430963
					CHANNELS 3 Xrotation Yrotation Zrotation
					JOINT Hood1
					{
						OFFSET -0.000000 -5.011017 -7.685929
						CHANNELS 3 Xrotation Yrotation Zrotation
						End Site
						{
							OFFSET 0.000000 9.175171 0.000000
						}
					}
				}
				JOINT LHoodieString
				{
					OFFSET 5.250455 16.397728 3.089918
					CHANNELS 3 Xrotation Yrotation Zrotation
					JOINT LHoodieString1
					{
						OFFSET 0.257711 -6.364296 3.694587
						CHANNELS 3 Xrotation Yrotation Zrotation
						JOINT LHoodieString2
						{
							OFFSET 0.000000 -9.643806 2.679132
							CHANNELS 3 Xrotation Yrotation Zrotation
							End Site
							{
								OFFSET 0.000000 10.009033 0.000000
							}
						}
					}
				}
				JOINT RHoodieString
				{
					OFFSET -5.250455 16.397728 3.089918
					CHANNELS 3 Xrotation Yrotation Zrotation
					JOINT RHoodieString1
					{
						OFFSET -0.257711 -6.364296 3.694587
						CHANNELS 3 Xrotation Yrotation Zrotation
						JOINT RHoodieString2
						{
							OFFSET 0.000000 -9.643806 2.679132
							CHANNELS 3 Xrotation Yrotation Zrotation
							End Site
							{
								OFFSET 0.000000 10.009033 0.000000
							}
						}
					}
				}
			}
			JOINT LBackpack_Strap
			{
				OFFSET 15.223173 -7.719788 -6.610897
				CHANNELS 3 Xrotation Yrotation Zrotation
				End Site
				{
					OFFSET 0.000000 16.040596 0.000000
				}
			}
			JOINT RBackpack_Strap
			{
				OFFSET -15.223000 -7.719788 -6.610897
				CHANNELS 3 Xrotation Yrotation Zrotation
				End Site
				{
					OFFSET 0.000000 16.040596 0.000000
				}
			}
		}
	}
	JOINT BoyFacialAnim_Joint
	{
		OFFSET 1.000000 -82.208069 -1.550922
		CHANNELS 3 Xrotation Yrotation Zrotation
		End Site
		{
			OFFSET 0.000000 30.012787 0.000000
		}
	}
}
MOTION
Frames: 4
Frame Time: 0.016667
1.497997 78.285576 -6.573298 -8.573433 0.577523 -5.893165 -0.000001 0.000000 -0.000000 -20.539200 10.720527 10.148091 42.583491 8.925212 4.067651 -15.023952 6.876109 -4.305268 0.000000 -0.000000 0.000000 0.000000 -0.000000 0.000000 0.000002 0.000000 -0.000000 -18.366341 -6.835417 -1.743249 28.466403 -8.854597 -0.604810 0.758601 -11.727656 5.140332 0.000000 0.000000 0.000000 0.000000 0.000000 0.000000 -0.000000 -0.000001 0.000000 22.183234 0.213919 -10.940559 4.323408 0.146922 0.771314 4.317605 0.254435 0.769909 6.233859 2.141238 -5.361029 32.391376 5.275869 -5.339067 -0.000001 -0.000001 -0.000002 -0.000001 -0.000001 -0.000002 -0.000001 -0.000001 -0.000002 0.683437 -4.757081 -8.732300 -22.550827 -19.321244 -57.675012 0.000003 -9.597241 0.000010 3.432746 -3.947589 7.312040 1.307100 19.310917 10.566928 -4.055798 2.095426 7.198227 -0.000000 -0.000000 0.000000 -0.359879 -2.835940 -4.755403 -1.676241 -2.580691 -10.524048 -0.000000 0.000000 0.000001 -0.479538 -3.111752 -3.445578 -2.850950 -1.288591 -26.506608 -0.000001 0.000001 -0.000001 -0.552804 -3.041081 -3.755605 -4.434797 -0.275167 -42.348693 -0.000001 -0.000001 0.000001 0.371405 -2.074819 -6.961823 -6.074068 -0.227665 -59.927144 -0.000001 -0.000000 -0.000000 -0.000002 -0.000000 0.000000 -0.194356 2.291444 -1.723708 -20.270985 11.422320 81.283814 -0.000007 8.883924 0.000017 28.169134 8.992695 -7.950438 0.427366 -21.825265 -11.247915 -5.629337 0.287137 -8.058255 0.000001 -0.000002 -0.000004 1.635078 -3.680248 11.093206 -1.097912 2.586769 4.382739 0.000001 -0.000000 -0.000000 2.033942 -3.062879 11.790216 -2.116460 1.482489 18.107827 0.000003 -0.000000 0.000000 2.588057 -2.631478 14.582046 -3.509552 0.864320 31.136859 -0.000001 -0.000001 -0.000000 1.564936 0.263039 19.659074 -3.745060 -2.733872 46.234930 0.000001 0.000001 -0.000001 -0.000001 0.000000 0.000002 -0.000000 -0.000000 0.000001 -0.000000 -0.000000 0.000001 -0.000000 -0.000000 0.000001 -0.000000 -0.000000 0.000001 -0.000000 -0.000000 0.000001 -0.000000 -0.000000 0.000001 -0.000000 -0.000000 0.000001 -0.000000 -0.000000 0.000000 -0.000000 -0.000000 0.000001 0.000002 -0.000000 -0.000000 0.000002 -0.000000 -0.000000 -0.000001 0.000000 -0.000000 
1.559224 78.272652 -6.560246 -8.958374 0.889939 -5.904187 -0.000001 -0.000000 0.000000 -20.196149 10.738767 10.137311 42.658903 8.974994 4.101356 -15.112195 6.574717 -4.271324 -0.000000 -0.000000 0.000000 0.000000 -0.000000 -0.000000 -0.000001 0.000001 0.000000 -17.914365 -7.029816 -1.899733 28.538204 -8.853221 -0.516315 0.672424 -11.752969 5.183652 -0.000000 0.000000 0.000000 -0.000000 0.000000 0.000000 0.000000 -0.000002 0.000000 22.297842 0.453730 -11.024386 4.244831 0.179286 0.853542 4.237874 0.289959 0.852522 6.296053 2.046060 -5.379574 32.415125 4.881102 -5.563022 -0.000000 0.000000 -0.000001 -0.000000 0.000000 -0.000001 -0.000000 0.000000 -0.000001 0.673836 -4.345952 -8.751171 -24.218010 -20.628319 -59.624649 0.000001 -5.210318 0.000002 3.203850 -2.385223 10.062863 1.334830 19.395502 10.543653 -4.055799 2.095426 7.198228 -0.000000 0.000000 -0.000003 -0.229632 -2.484429 -4.158036 -1.677319 -2.580588 -10.535578 -0.000000 0.000000 0.000000 -0.381400 -2.973179 -2.772518 -2.882792 -1.276227 -26.886352 0.000001 0.000000 0.000000 -0.537140 -3.156674 -2.987705 -4.497229 -0.221606 -43.189219 -0.000000 0.000002 0.000001 0.277919 -2.367895 -6.112940 -6.147958 -0.133676 -61.141190 -0.000001 0.000001 0.000002 -0.000002 -0.000001 -0.000000 -0.200341 2.255768 -1.862670 -20.812041 12.074571 82.169225 0.000001 8.146304 -0.000005 30.186684 10.042889 -5.741543 0.424820 -21.799261 -11.241329 -5.629047 0.285069 -8.058706 -0.000001 0.000002 0.000001 1.703700 -3.817904 11.381612 -1.097945 2.586765 4.382886 0.000004 0.000000 -0.000000 2.075113 -3.110618 12.066912 -2.116736 1.482417 18.110918 0.000005 0.000000 -0.000000 2.573418 -2.577327 14.843476 -3.509725 0.864203 31.139017 0.000005 -0.000000 -0.000000 1.477337 0.380935 19.911099 -3.745070 -2.733867 46.234934 0.000001 0.000002 -0.000002 -0.000000 0.000001 0.000001 -0.000004 0.000000 0.000001 -0.000004 0.000000 0.000001 -0.000004 0.000000 0.000001 -0.000004 0.000000 0.000001 -0.000004 0.000000 0.000002 -0.000004 0.000000 0.000001 -0.000004 0.000000 0.000001 -0.000004 0.000000 0.000001 -0.000004 0.000000 0.000001 0.000001 0.000000 0.000002 0.000001 0.000000 0.000002 -0.000001 -0.000000 0.000000 
1.611989 78.291336 -6.519427 -9.273697 1.257135 -5.886107 -0.000001 0.000000 -0.000000 -19.839039 10.778728 10.113597 42.597148 9.020995 4.117672 -15.149773 6.197952 -4.227085 -0.000000 -0.000000 -0.000000 -0.000000 -0.000000 -0.000000 0.000001 0.000002 -0.000000 -17.427139 -7.221627 -2.068682 28.477835 -8.863445 -0.421978 0.618815 -11.825223 5.228132 0.000000 -0.000002 -0.000000 0.000000 -0.000002 0.000000 0.000000 0.000002 -0.000000 22.326925 0.620678 -11.089762 4.133714 0.201983 0.930888 4.125801 0.314542 0.929986 6.334321 1.940319 -5.391288 32.282636 4.521306 -5.961186 0.000000 0.000002 -0.000001 0.000000 0.000002 -0.000001 0.000000 0.000002 -0.000001 0.662091 -3.939410 -8.761919 -25.396785 -21.717239 -61.367078 0.000005 -1.695884 0.000002 2.613928 -0.330154 12.341117 1.360754 19.446213 10.508111 -4.055800 2.095425 7.198221 -0.000001 -0.000000 -0.000003 -0.117974 -2.101358 -3.789908 -1.678462 -2.580472 -10.547847 -0.000000 0.000001 -0.000000 -0.284430 -2.766245 -2.279922 -2.917274 -1.262575 -27.298736 0.000000 -0.000000 -0.000001 -0.491235 -3.161804 -2.339647 -4.564121 -0.162410 -44.101927 0.000001 0.000001 0.000001 0.246834 -2.521848 -5.338175 -6.225932 -0.029825 -62.459792 -0.000002 -0.000001 -0.000000 -0.000000 0.000000 -0.000000 -0.201603 2.145568 -1.996621 -21.151959 12.591419 82.974962 -0.000004 7.712495 0.000035 32.039550 11.113129 -3.438555 0.419315 -21.730827 -11.224272 -5.629548 0.284998 -8.058529 0.000001 0.000000 -0.000001 1.765952 -3.913948 11.765139 -1.097940 2.586772 4.383065 0.000003 0.000000 -0.000001 2.115487 -3.144914 12.397718 -2.116982 1.482356 18.113797 0.000002 -0.000000 -0.000000 2.572330 -2.542960 15.108612 -3.509894 0.864128 31.140892 -0.000004 -0.000002 -0.000001 1.421608 0.455500 20.125730 -3.745053 -2.733875 46.234951 0.000001 0.000000 0.000001 -0.000001 0.000001 0.000001 -0.000000 0.000000 0.000001 -0.000000 0.000000 0.000001 -0.000000 0.000000 0.000001 -0.000000 0.000000 0.000001 -0.000000 0.000000 0.000001 -0.000000 0.000000 0.000000 -0.000000 0.000000 0.000001 -0.000000 0.000000 0.000000 -0.000000 -0.000000 0.000001 -0.000000 0.000000 0.000001 -0.000000 0.000000 0.000001 -0.000001 0.000000 -0.000000 
1.660150 78.343346 -6.449300 -9.531444 1.651181 -5.845457 -0.000000 0.000000 0.000000 -19.447763 10.847731 10.078851 42.392573 9.063264 4.119358 -15.138771 5.768197 -4.174840 -0.000000 0.000000 0.000000 -0.000000 0.000000 0.000000 0.000001 -0.000001 0.000000 -16.886683 -7.393238 -2.228951 28.264050 -8.890879 -0.338204 0.612275 -11.937591 5.281313 0.000000 0.000000 0.000000 0.000000 0.000000 -0.000000 -0.000000 -0.000001 -0.000000 22.271642 0.711876 -11.132951 3.999443 0.214995 0.991224 3.990886 0.327722 0.990233 6.336061 1.838044 -5.398906 31.969353 4.256899 -6.515808 0.000002 0.000000 -0.000000 0.000002 0.000000 -0.000000 0.000002 0.000000 -0.000000 0.649428 -3.574097 -8.776979 -25.893934 -22.506976 -62.757240 -0.000004 0.637271 -0.000000 1.845445 1.953969 13.641510 1.385183 19.460652 10.461399 -4.055799 2.095426 7.198226 -0.000000 0.000001 0.000001 -0.032830 -1.721992 -3.713069 -1.679423 -2.580386 -10.558143 -0.000001 0.000001 -0.000001 -0.199384 -2.513059 -2.030167 -2.951940 -1.248544 -27.714652 -0.000002 0.000000 0.000000 -0.425784 -3.062322 -1.873957 -4.630776 -0.101500 -45.024484 -0.000001 0.000001 0.000001 0.271075 -2.530851 -4.699690 -6.302353 0.076997 -63.793318 0.000001 -0.000001 -0.000001 0.000001 -0.000000 -0.000000 -0.198743 1.964395 -2.107643 -21.276010 13.038153 83.677952 -0.000003 7.587287 -0.000003 33.459717 12.003438 -1.310785 0.408903 -21.633514 -11.203966 -5.630553 0.286310 -8.057961 0.000001 -0.000001 -0.000001 1.820857 -3.967679 12.211646 -1.097947 2.586759 4.383186 0.000000 0.000000 0.000000 2.154670 -3.167224 12.755146 -2.117197 1.482311 18.116254 -0.000000 -0.000000 0.000001 2.586158 -2.531857 15.355505 -3.510005 0.864041 31.142377 -0.000001 0.000001 0.000001 1.402068 0.482776 20.285139 -3.745071 -2.733853 46.234930 -0.000002 0.000002 -0.000000 -0.000001 0.000000 0.000003 -0.000002 -0.000000 -0.000000 -0.000002 -0.000000 -0.000000 -0.000002 -0.000000 -0.000000 -0.000002 -0.000000 -0.000000 -0.000002 -0.000000 0.000000 -0.000002 -0.000000 -0.000000 -0.000002 -0.000000 -0.000000 -0.000002 -0.000000 -0.000000 -0.000002 -0.000000 0.000000 0.000001 0.000000 -0.000001 0.000001 0.000000 -0.000001 -0.000000 0.000000 0.000000 
